<svg width="46" height="34" viewBox="0 0 46 34" fill="none" xmlns="http://www.w3.org/2000/svg">
<mask id="path-1-inside-1_598_73" fill="white">
<path fill-rule="evenodd" clip-rule="evenodd" d="M37.8417 1.32672C39.6106 -0.442239 42.4787 -0.442239 44.2476 1.32672C46.0166 3.09567 46.0166 5.96371 44.2476 7.73267L20.6489 31.3315C20.5437 31.4631 20.4302 31.5903 20.3083 31.7122C19.8745 32.146 19.3747 32.4733 18.8412 32.6944C17.185 33.4135 15.1867 33.0959 13.8326 31.7418C13.6398 31.549 13.468 31.3432 13.3173 31.1272L1.32671 19.1366C-0.44224 17.3676 -0.442237 14.4996 1.32672 12.7306C3.09567 10.9617 5.96372 10.9617 7.73267 12.7306L17.0852 22.0832L37.8417 1.32672Z"/>
</mask>
<path fill-rule="evenodd" clip-rule="evenodd" d="M37.8417 1.32672C39.6106 -0.442239 42.4787 -0.442239 44.2476 1.32672C46.0166 3.09567 46.0166 5.96371 44.2476 7.73267L20.6489 31.3315C20.5437 31.4631 20.4302 31.5903 20.3083 31.7122C19.8745 32.146 19.3747 32.4733 18.8412 32.6944C17.185 33.4135 15.1867 33.0959 13.8326 31.7418C13.6398 31.549 13.468 31.3432 13.3173 31.1272L1.32671 19.1366C-0.44224 17.3676 -0.442237 14.4996 1.32672 12.7306C3.09567 10.9617 5.96372 10.9617 7.73267 12.7306L17.0852 22.0832L37.8417 1.32672Z" fill="#A8A8A8"/>
<path d="M44.2476 1.32672L43.8941 1.68027L43.8941 1.68027L44.2476 1.32672ZM37.8417 1.32672L37.4881 0.973163L37.8417 1.32672ZM44.2476 7.73267L43.8941 7.37912L43.8941 7.37912L44.2476 7.73267ZM20.6489 31.3315L20.2953 30.9779L20.2755 30.9977L20.2581 31.0195L20.6489 31.3315ZM20.3083 31.7122L19.9547 31.3586L19.9547 31.3586L20.3083 31.7122ZM18.8412 32.6944L18.6498 32.2324L18.642 32.2357L18.8412 32.6944ZM13.3173 31.1272L13.7273 30.841L13.702 30.8048L13.6708 30.7736L13.3173 31.1272ZM1.32671 19.1366L0.973161 19.4902L0.973162 19.4902L1.32671 19.1366ZM1.32672 12.7306L0.973164 12.3771L0.973164 12.3771L1.32672 12.7306ZM7.73267 12.7306L8.08622 12.3771L8.08622 12.3771L7.73267 12.7306ZM17.0852 22.0832L16.7317 22.4367L17.0852 22.7903L17.4388 22.4367L17.0852 22.0832ZM44.6012 0.973163C42.637 -0.991054 39.4524 -0.991054 37.4881 0.973163L38.1952 1.68027C39.7689 0.106577 42.3204 0.106577 43.8941 1.68027L44.6012 0.973163ZM44.6012 8.08622C46.5654 6.122 46.5654 2.93738 44.6012 0.973163L43.8941 1.68027C45.4678 3.25396 45.4678 5.80542 43.8941 7.37912L44.6012 8.08622ZM21.0024 31.685L44.6012 8.08622L43.8941 7.37912L20.2953 30.9779L21.0024 31.685ZM20.2581 31.0195C20.1646 31.1366 20.0635 31.2499 19.9547 31.3586L20.6618 32.0658C20.7969 31.9306 20.9229 31.7896 21.0396 31.6434L20.2581 31.0195ZM19.9547 31.3586C19.5682 31.7452 19.1237 32.0361 18.6498 32.2325L19.0326 33.1563C19.6256 32.9106 20.1808 32.5467 20.6618 32.0658L19.9547 31.3586ZM13.479 32.0953C14.9832 33.5995 17.2021 33.9511 19.0403 33.153L18.642 32.2357C17.1678 32.8758 15.3902 32.5924 14.1861 31.3882L13.479 32.0953ZM12.9072 31.4133C13.0747 31.6533 13.2654 31.8817 13.479 32.0953L14.1861 31.3882C14.0142 31.2163 13.8613 31.0331 13.7273 30.841L12.9072 31.4133ZM13.6708 30.7736L1.68027 18.783L0.973162 19.4902L12.9637 31.4807L13.6708 30.7736ZM1.68027 18.783C0.106576 17.2094 0.106578 14.6579 1.68027 13.0842L0.973164 12.3771C-0.991052 14.3413 -0.991056 17.5259 0.973161 19.4902L1.68027 18.783ZM1.68027 13.0842C3.25396 11.5105 5.80542 11.5105 7.37912 13.0842L8.08622 12.3771C6.12201 10.4129 2.93738 10.4129 0.973164 12.3771L1.68027 13.0842ZM7.37912 13.0842L16.7317 22.4367L17.4388 21.7296L8.08622 12.3771L7.37912 13.0842ZM37.4881 0.973163L16.7317 21.7296L17.4388 22.4367L38.1952 1.68027L37.4881 0.973163Z" fill="#A8A8A8" fill-opacity="0.5" mask="url(#path-1-inside-1_598_73)"/>
</svg>
