<svg width="37" height="37" viewBox="0 0 37 37" fill="none" xmlns="http://www.w3.org/2000/svg">
<mask id="path-1-inside-1_513_35" fill="white">
<path fill-rule="evenodd" clip-rule="evenodd" d="M7.73315 1.32672C5.9642 -0.442239 3.09615 -0.442239 1.3272 1.32672C-0.441755 3.09567 -0.441753 5.96372 1.3272 7.73267L11.6798 18.0853L1.32672 28.4383C-0.442238 30.2073 -0.44224 33.0753 1.32672 34.8443C3.09567 36.6132 5.96371 36.6132 7.73267 34.8443L18.0857 24.4912L28.4383 34.8438C30.2073 36.6127 33.0753 36.6127 34.8443 34.8438C36.6132 33.0748 36.6132 30.2068 34.8443 28.4378L24.4917 18.0853L34.8438 7.73316C36.6127 5.96421 36.6127 3.09616 34.8438 1.3272C33.0748 -0.44175 30.2068 -0.441751 28.4378 1.3272L18.0857 11.6793L7.73315 1.32672Z"/>
</mask>
<path fill-rule="evenodd" clip-rule="evenodd" d="M7.73315 1.32672C5.9642 -0.442239 3.09615 -0.442239 1.3272 1.32672C-0.441755 3.09567 -0.441753 5.96372 1.3272 7.73267L11.6798 18.0853L1.32672 28.4383C-0.442238 30.2073 -0.44224 33.0753 1.32672 34.8443C3.09567 36.6132 5.96371 36.6132 7.73267 34.8443L18.0857 24.4912L28.4383 34.8438C30.2073 36.6127 33.0753 36.6127 34.8443 34.8438C36.6132 33.0748 36.6132 30.2068 34.8443 28.4378L24.4917 18.0853L34.8438 7.73316C36.6127 5.96421 36.6127 3.09616 34.8438 1.3272C33.0748 -0.44175 30.2068 -0.441751 28.4378 1.3272L18.0857 11.6793L7.73315 1.32672Z" fill="#A8A8A8"/>
<path d="M1.3272 1.32672L1.68075 1.68027L1.3272 1.32672ZM7.73315 1.32672L8.08671 0.973163L7.73315 1.32672ZM1.3272 7.73267L0.973649 8.08623L1.3272 7.73267ZM11.6798 18.0853L12.0333 18.4388L12.3869 18.0853L12.0333 17.7317L11.6798 18.0853ZM1.32672 28.4383L0.973164 28.0848L1.32672 28.4383ZM1.32672 34.8443L1.68027 34.4907L1.32672 34.8443ZM18.0857 24.4912L18.4393 24.1376L18.0857 23.7841L17.7322 24.1376L18.0857 24.4912ZM24.4917 18.0853L24.1381 17.7317L23.7846 18.0853L24.1381 18.4388L24.4917 18.0853ZM34.8438 7.73316L35.1973 8.08671L34.8438 7.73316ZM34.8438 1.3272L34.4902 1.68076L34.8438 1.3272ZM28.4378 1.3272L28.7914 1.68076L28.4378 1.3272ZM18.0857 11.6793L17.7322 12.0329L18.0857 12.3864L18.4393 12.0329L18.0857 11.6793ZM1.68075 1.68027C3.25445 0.106577 5.80591 0.106577 7.3796 1.68027L8.08671 0.973163C6.12249 -0.991054 2.93786 -0.991054 0.973646 0.973163L1.68075 1.68027ZM1.68076 7.37912C0.107062 5.80543 0.107061 3.25396 1.68075 1.68027L0.973646 0.973163C-0.990571 2.93738 -0.990568 6.12201 0.973649 8.08623L1.68076 7.37912ZM12.0333 17.7317L1.68076 7.37912L0.973649 8.08623L11.3262 18.4388L12.0333 17.7317ZM11.3262 17.7317L0.973164 28.0848L1.68027 28.7919L12.0333 18.4388L11.3262 17.7317ZM0.973164 28.0848C-0.991053 30.049 -0.991056 33.2336 0.973162 35.1978L1.68027 34.4907C0.106576 32.917 0.106578 30.3656 1.68027 28.7919L0.973164 28.0848ZM0.973162 35.1978C2.93738 37.162 6.122 37.162 8.08622 35.1978L7.37912 34.4907C5.80542 36.0644 3.25396 36.0644 1.68027 34.4907L0.973162 35.1978ZM8.08622 35.1978L18.4393 24.8448L17.7322 24.1376L7.37912 34.4907L8.08622 35.1978ZM28.7919 34.4902L18.4393 24.1376L17.7322 24.8448L28.0848 35.1973L28.7919 34.4902ZM34.4907 34.4902C32.917 36.0639 30.3656 36.0639 28.7919 34.4902L28.0848 35.1973C30.049 37.1616 33.2336 37.1616 35.1978 35.1973L34.4907 34.4902ZM34.4907 28.7914C36.0644 30.3651 36.0644 32.9165 34.4907 34.4902L35.1978 35.1973C37.162 33.2331 37.162 30.0485 35.1978 28.0843L34.4907 28.7914ZM24.1381 18.4388L34.4907 28.7914L35.1978 28.0843L24.8452 17.7317L24.1381 18.4388ZM24.8452 18.4388L35.1973 8.08671L34.4902 7.37961L24.1381 17.7317L24.8452 18.4388ZM35.1973 8.08671C37.1615 6.1225 37.1616 2.93787 35.1973 0.973651L34.4902 1.68076C36.0639 3.25445 36.0639 5.80591 34.4902 7.37961L35.1973 8.08671ZM35.1973 0.973651C33.2331 -0.990566 30.0485 -0.990566 28.0843 0.973651L28.7914 1.68076C30.3651 0.107065 32.9165 0.107065 34.4902 1.68076L35.1973 0.973651ZM28.0843 0.973651L17.7322 11.3257L18.4393 12.0329L28.7914 1.68076L28.0843 0.973651ZM7.3796 1.68027L17.7322 12.0329L18.4393 11.3257L8.08671 0.973163L7.3796 1.68027Z" fill="#A8A8A8" fill-opacity="0.5" mask="url(#path-1-inside-1_513_35)"/>
</svg>
